<?xml version="1.0" encoding="UTF-8" standalone="no"?>
<!-- Created with Inkscape (http://www.inkscape.org/) -->

<svg
   xmlns:dc="http://purl.org/dc/elements/1.1/"
   xmlns:cc="http://creativecommons.org/ns#"
   xmlns:rdf="http://www.w3.org/1999/02/22-rdf-syntax-ns#"
   xmlns:svg="http://www.w3.org/2000/svg"
   xmlns="http://www.w3.org/2000/svg"
   xmlns:sodipodi="http://sodipodi.sourceforge.net/DTD/sodipodi-0.dtd"
   xmlns:inkscape="http://www.inkscape.org/namespaces/inkscape"
   width="210mm"
   height="297mm"
   viewBox="0 0 210 297"
   version="1.1"
   id="svg8"
   inkscape:version="0.92.4 (5da689c313, 2019-01-14)"
   sodipodi:docname="bat.svg">
  <defs
     id="defs2">
    <inkscape:path-effect
       effect="envelope"
       id="path-effect4549"
       is_visible="true"
       yy="true"
       xx="true"
       bendpath1="M 28.7841,69.124705 C 53.331317,55.247446 162.60883,63.759561 229.80454,44.879747"
       bendpath2="m 231.01335,62.922044 c 0.19621,7.945523 1.56451,22.442352 0,31.833325"
       bendpath3="M 28.443248,97.641396 C 53.202654,103.33117 138.92529,95.633232 231.83235,116.51672"
       bendpath4="m 28.443248,62.922044 c -1.941662,12.128587 -1.978005,21.548222 0,31.833325"
       bendpath3-nodetypes="cc"
       bendpath1-nodetypes="cc"
       bendpath4-nodetypes="cc"
       bendpath2-nodetypes="cc" />
  </defs>
  <sodipodi:namedview
     id="base"
     pagecolor="#ffffff"
     bordercolor="#666666"
     borderopacity="1.0"
     inkscape:pageopacity="0.0"
     inkscape:pageshadow="2"
     inkscape:zoom="1.8092896"
     inkscape:cx="349.64684"
     inkscape:cy="829.8958"
     inkscape:document-units="mm"
     inkscape:current-layer="layer1"
     showgrid="false"
     inkscape:window-width="1920"
     inkscape:window-height="1021"
     inkscape:window-x="1366"
     inkscape:window-y="0"
     inkscape:window-maximized="1" />
  <metadata
     id="metadata5">
    <rdf:RDF>
      <cc:Work
         rdf:about="">
        <dc:format>image/svg+xml</dc:format>
        <dc:type
           rdf:resource="http://purl.org/dc/dcmitype/StillImage" />
        <dc:title></dc:title>
      </cc:Work>
    </rdf:RDF>
  </metadata>
  <g
     inkscape:label="Layer 1"
     inkscape:groupmode="layer"
     id="layer1">
    <g
       id="g4562"
       transform="matrix(0.35533242,0,0,0.35533242,92.351341,22.945775)">
      <path
         transform="scale(0.26458333)"
         id="path4529"
         d="m 784.95508,240.83789 c -4.46075,0.006 -8.92103,0.0381 -13.38086,0.082 v 219.35156 c 51.45034,1.05803 106.95321,-16.16075 117.81055,-73.85156 27.58046,-59.36288 -13.41004,-140.22326 -80.31055,-145.42187 -8.04152,-0.12084 -16.08081,-0.17152 -24.11914,-0.16016 z M 68.535156,293.93555 c -60.1916569,7.43444 -120.340181,15.29883 -180.517576,22.73828 -163.66161,24.81366 -329.40616,16.45741 -494.19727,23.91211 -28.91078,-46.26219 -97.74882,1.71004 -74.87304,45.75195 16.6594,31.3403 56.5046,26.25686 75.57617,1.22656 61.27045,-0.506 122.54342,-1.19574 183.8164,-0.76367 116.45679,-0.97621 232.98818,3.04894 348.208988,21.04297 47.317803,3.84892 94.647081,7.67894 141.986328,11.42578 z"
         style="opacity:1;fill:#000000;fill-opacity:0.98913042;stroke-width:1.40407932"
         inkscape:connector-curvature="0" />
      <g
         inkscape:path-effect="#path-effect4549"
         id="text4534"
         style="font-style:normal;font-variant:normal;font-weight:normal;font-stretch:normal;font-size:42.08821869px;line-height:1.25;font-family:'Noto Sans Miao';-inkscape-font-specification:'Noto Sans Miao';letter-spacing:0px;word-spacing:0px;fill:#000000;fill-opacity:1;stroke:none;stroke-width:1.05220544"
         transform="scale(0.85806102,1.1654183)"
         aria-label="NONAME">
        <path
           inkscape:original-d="m 28.443248,63.476917 h 8.836882 l 11.159132,21.04411 v -21.04411 h 7.501075 V 94.159393 H 47.103455 L 35.944322,73.115284 v 21.044109 h -7.501074 z"
           id="path4536"
           style="font-style:normal;font-variant:normal;font-weight:bold;font-stretch:normal;font-family:'Noto Sans Miao';-inkscape-font-specification:'Noto Sans Miao';stroke-width:1.05220544"
           d="m 28.6963,66.278997 c 2.948551,-0.211925 5.346121,-0.343763 8.432695,-0.500352 1.245725,1.698152 2.247869,3.842044 3.109267,5.680207 0.459186,0.982874 0.866266,1.862271 1.33155,2.810756 0.892882,1.834509 1.745101,3.395678 2.792025,5.034029 1.119095,1.897832 2.180271,3.375304 3.496874,5.200962 -0.155288,-1.788275 -0.221624,-3.30281 -0.169074,-5.077863 0.06985,-3.848755 0.923747,-8.300632 0.409154,-14.289682 2.419577,-0.160626 4.996051,-0.340248 7.429516,-0.516966 0.462205,6.789393 -0.178895,11.368155 -0.231436,15.026941 -0.124923,4.278206 0.781564,6.930063 0.709103,15.614805 -2.949799,-0.11865 -5.940878,-0.201058 -8.880408,-0.238393 -1.488149,-4.49503 -3.769822,-7.611177 -5.662275,-10.310251 -0.64157,-0.909404 -1.235636,-1.759546 -1.834898,-2.668143 -0.665786,-1.008047 -1.277962,-1.999604 -1.864709,-3.042161 -0.941106,-1.588021 -1.708482,-3.098808 -2.462557,-4.765744 -0.205095,1.564016 -0.351394,3.017589 -0.389417,4.602833 -0.137634,4.82198 1.522641,9.47955 1.051303,16.285393 -2.404804,0.07524 -5.033628,0.184922 -7.398057,0.303425 0.98766,-6.138567 -1.686228,-11.868805 -1.530345,-17.123633 0.146737,-4.943628 2.616357,-9.412607 1.661689,-12.026163 z"
           inkscape:connector-curvature="0" />
        <path
           inkscape:original-d="m 77.724278,68.655741 q -3.616957,0 -5.610393,2.671616 -1.993436,2.671615 -1.993436,7.521625 0,4.829458 1.993436,7.501074 1.993436,2.671615 5.610393,2.671615 3.637507,0 5.630943,-2.671615 1.993436,-2.671616 1.993436,-7.501074 0,-4.85001 -1.993436,-7.521625 -1.993436,-2.671616 -5.630943,-2.671616 z m 0,-5.733697 q 7.398319,0 11.5907,4.233482 4.192382,4.233483 4.192382,11.693456 0,7.439421 -4.192382,11.672904 -4.192381,4.233483 -11.5907,4.233483 -7.377769,0 -11.590701,-4.233483 -4.192381,-4.233483 -4.192381,-11.672904 0,-7.459973 4.192381,-11.693456 4.212932,-4.233482 11.590701,-4.233482 z"
           id="path4538"
           style="font-style:normal;font-variant:normal;font-weight:bold;font-stretch:normal;font-family:'Noto Sans Miao';-inkscape-font-specification:'Noto Sans Miao';stroke-width:1.05220544"
           d="m 77.453831,70.693371 c -2.438972,0.06863 -4.260109,1.305203 -5.649185,3.220368 -1.285187,1.77193 -2.046831,3.918426 -2.125229,5.969924 0,0 0,0 0,0 -0.0071,0.130925 -0.01189,0.262139 -0.01438,0.393711 -0.04585,2.422972 0.782434,4.21414 2.236359,5.764609 1.472368,1.570137 3.400437,2.650247 5.845124,2.702112 2.483009,0.05268 4.249631,-0.971253 5.517675,-2.580878 1.239734,-1.573689 1.77909,-3.35963 1.813979,-5.783472 0.0019,-0.13279 0.0024,-0.265468 0.0014,-0.398109 0,0 0,-10e-7 0,-10e-7 -0.06838,-2.063076 -0.70424,-4.31164 -1.96942,-6.180704 -1.367525,-2.020261 -3.190194,-3.176952 -5.65637,-3.10756 z m -0.269913,-8.810322 c 5.050872,-0.46971 8.836806,1.892868 11.863395,6.265838 2.811427,4.062092 4.189139,8.693571 4.293457,11.853338 0,0 0,0 0,10e-7 9.43e-4,0.135191 6.27e-4,0.269749 -9.13e-4,0.403778 -0.04017,3.494567 -1.122302,6.647773 -3.789299,10.606517 -2.838391,4.213152 -6.396607,7.412039 -11.566886,6.937799 -5.002117,-0.458814 -8.803731,-4.085406 -11.832589,-7.661651 -2.96928,-3.521831 -4.849866,-6.46821 -4.776004,-10.120443 0.0027,-0.132289 0.0075,-0.264572 0.0145,-0.396954 0,0 0,0 0,0 0.122897,-3.198707 1.836827,-7.130431 4.453199,-10.687854 2.81759,-3.812554 6.364428,-6.737556 11.341141,-7.200369 z"
           inkscape:connector-curvature="0" />
        <path
           inkscape:original-d="m 99.467113,63.476917 h 8.836877 l 11.15914,21.04411 v -21.04411 h 7.50107 v 30.682476 h -8.83688 L 106.96819,73.115284 v 21.044109 h -7.501077 z"
           id="path4540"
           style="font-style:normal;font-variant:normal;font-weight:bold;font-stretch:normal;font-family:'Noto Sans Miao';-inkscape-font-specification:'Noto Sans Miao';stroke-width:1.05220544"
           d="m 98.998007,61.096387 c 1.516033,-0.112909 3.027293,-0.223176 4.543773,-0.331583 1.43919,-0.102916 2.87453,-0.203549 4.31387,-0.302595 2.29103,7.278441 4.01274,11.931581 6.01762,15.631431 0.83914,1.550537 1.64592,2.778381 2.48262,3.933318 1.09234,1.770813 2.23972,3.247996 3.4303,5.077361 -0.0865,-1.875899 -0.12361,-3.211176 -0.11075,-5.074177 -0.0328,-2.044683 -0.10362,-10.953049 -0.63389,-20.298443 2.50938,-0.153304 5.00921,-0.298187 7.51828,-0.435839 0.57866,9.567941 0.68568,18.688392 0.72316,20.743016 -0.0213,4.646427 0.47405,6.023633 0.47765,20.586604 -2.97981,-0.1874 -5.94363,-0.3889 -8.92647,-0.60455 -1.45804,-7.306432 -3.16092,-11.035283 -4.735,-13.663246 -1.49632,-2.495241 -2.93855,-4.177835 -4.28638,-6.335702 -0.96901,-1.318373 -1.89128,-2.729717 -2.86055,-4.596009 0.0195,1.801715 0.0242,2.791921 0.0437,4.593636 -0.0507,4.436494 0.48561,5.718434 0.5555,19.131743 -0.0568,-0.0046 -2.94445,-0.241515 -3.00128,-0.246128 -0.11591,-0.0096 -4.46925,-0.373463 -4.585164,-0.38306 -0.08451,-12.847765 -0.642024,-14.149025 -0.579196,-18.510869 -0.01729,-2.029619 0.03277,-10.29999 -0.387783,-18.914908 z"
           inkscape:connector-curvature="0" />
        <path
           inkscape:original-d="m 153.35155,88.569552 h -12.37164 l -1.95233,5.589841 h -7.9532 l 11.36464,-30.682476 h 9.43286 l 11.36464,30.682476 h -7.95319 z M 142.9528,82.876956 h 8.40531 l -4.19238,-12.207228 z"
           id="path4542"
           style="font-style:normal;font-variant:normal;font-weight:bold;font-stretch:normal;font-family:'Noto Sans Miao';-inkscape-font-specification:'Noto Sans Miao';stroke-width:1.05220544"
           d="m 154.28524,90.288838 c -4.17965,-0.08322 -8.32089,-0.175888 -12.50815,-0.278839 -0.57991,2.586785 -1.17623,6.048558 -1.84929,11.293521 -2.67444,-0.12941 -5.3405,-0.27151 -8.01884,-0.42706 1.88986,-13.92035 3.4809,-16.060171 5.47838,-20.824575 1.73366,-3.849415 3.6159,-9.674147 4.67652,-21.512649 3.15235,-0.135992 6.29324,-0.261544 9.4434,-0.379778 2.98832,12.779542 4.30983,17.10717 6.58508,21.897099 1.73686,4.30463 4.58001,8.065806 6.15607,22.078683 -2.65843,-0.0567 -5.30887,-0.12272 -7.97318,-0.20059 -0.58408,-5.376735 -1.27956,-8.969232 -1.98999,-11.645812 z m -10.73201,-6.328363 c -0.32701,-0.003 8.84018,0.07442 8.51317,0.07143 -0.59415,-1.403911 -1.08814,-2.510361 -1.63959,-3.970113 -0.96864,-2.165475 -1.85625,-4.469898 -2.90425,-8.211647 -0.7664,3.701661 -1.59727,6.126897 -2.4498,8.209514 -0.52813,1.377821 -1.03483,2.596073 -1.51953,3.900813 z"
           inkscape:connector-curvature="0" />
        <path
           inkscape:original-d="m 167.28505,63.476917 h 10.06993 l 6.9873,16.42016 7.02841,-16.42016 h 10.04938 v 30.682476 h -7.48052 V 71.717824 l -7.06951,16.543464 h -5.01442 l -7.0695,-16.543464 v 22.441569 h -7.50107 z"
           id="path4544"
           style="font-style:normal;font-variant:normal;font-weight:bold;font-stretch:normal;font-family:'Noto Sans Miao';-inkscape-font-specification:'Noto Sans Miao';stroke-width:1.05220544"
           d="m 166.92271,57.630852 c 0.35363,-0.01124 6.3354,-0.197295 6.68903,-0.208538 0.16822,-0.0052 3.20518,-0.09673 3.3734,-0.101884 3.57922,13.453305 4.9894,17.516157 7.61668,22.56801 0.2237,0.495734 0.44755,0.972469 0.67575,1.448149 0.21502,-0.479625 0.43183,-0.964908 0.65115,-1.466104 1.84923,-3.974158 4.26578,-10.404905 5.0591,-22.973202 3.37132,-0.107453 6.66302,-0.219194 10.03095,-0.344067 1.18437,10.719216 1.29161,20.796245 1.34483,22.97677 0.031,3.629663 0.51332,10.291276 -0.0875,23.097464 -2.4671,-0.038 -4.94799,-0.0687 -7.4194,-0.0959 0.49807,-12.622163 0.0531,-19.436086 0.0304,-22.8178 -0.0395,-1.605823 -0.11294,-4.469731 -0.21636,-7.118903 -0.82863,3.015328 -1.72956,5.222373 -2.62192,7.175621 -1.38051,3.199333 -2.69312,5.848266 -4.03248,10.528186 0.0497,3.8e-4 -5.08194,-0.04275 -5.03226,-0.04237 -1.34695,-4.377524 -3.19221,-7.476987 -4.47717,-10.300518 -1.02237,-1.939032 -1.98293,-3.958826 -3.07405,-6.987998 0.10971,2.744766 0.18247,5.370214 0.22324,7.011834 0.0195,5.028637 0.49208,7.233392 0.13831,22.349702 0.004,5e-5 -0.80971,-0.0108 -0.80589,-0.0107 -2.2302,-0.0299 -4.45367,-0.064 -6.68831,-0.104 0.27729,-15.193443 -0.18931,-17.205096 -0.20418,-22.187869 -0.0527,-2.148572 -0.25577,-11.92481 -1.1733,-22.395869 z"
           inkscape:connector-curvature="0" />
        <path
           inkscape:original-d="m 209.20886,63.476917 h 21.35237 v 5.980309 h -13.44028 v 5.713147 h 12.6388 v 5.980308 h -12.6388 v 7.028404 h 13.8924 v 5.980308 h -21.80449 z"
           id="path4546"
           style="font-style:normal;font-variant:normal;font-weight:bold;font-stretch:normal;font-family:'Noto Sans Miao';-inkscape-font-specification:'Noto Sans Miao';stroke-width:1.05220544"
           d="m 208.78696,56.246414 c 7.81576,-0.32769 13.47061,-0.615719 21.31074,-0.995062 0.63717,5.174943 0.86055,9.328153 0.95683,12.411263 -4.50898,0.259138 -8.84234,0.49455 -13.36493,0.711425 0.12706,2.889277 0.17399,5.616197 0.20898,7.446419 4.19795,-0.210941 8.30196,-0.445824 12.47018,-0.706075 0.0102,1.171403 0.0238,2.166783 0.049,3.25121 0.021,0.946096 0.0539,1.850675 0.0965,2.844603 -4.16655,0.197437 -8.28477,0.374545 -12.48101,0.5312 0.0717,2.164946 0.20964,5.075678 0.21506,8.580966 4.57685,0.02102 9.23984,0.049 13.79916,0.09664 0.0152,3.385693 -0.0896,7.654783 -0.50387,13.2956 -7.16267,-0.49744 -14.38404,-0.76989 -21.55486,-0.93925 0.71026,-12.950951 0.17322,-19.704336 0.13108,-23.492154 -0.0527,-2.178844 -0.10305,-12.359411 -1.33282,-23.036782 z"
           inkscape:connector-curvature="0" />
      </g>
    </g>
  </g>
</svg>
